<?xml version="1.0" encoding="UTF-8" standalone="no"?>
<!-- Created with Inkscape (http://www.inkscape.org/) -->

<svg
   width="256mm"
   height="256mm"
   viewBox="0 0 256 256"
   version="1.1"
   id="svg5"
   inkscape:version="1.2.2 (732a01da63, 2022-12-09)"
   sodipodi:docname="ThinkFun.svg"
   xmlns:inkscape="http://www.inkscape.org/namespaces/inkscape"
   xmlns:sodipodi="http://sodipodi.sourceforge.net/DTD/sodipodi-0.dtd"
   xmlns="http://www.w3.org/2000/svg"
   xmlns:svg="http://www.w3.org/2000/svg">
  <sodipodi:namedview
     id="namedview7"
     pagecolor="#ffffff00"
     bordercolor="#000000"
     borderopacity="0.25"
     inkscape:showpageshadow="2"
     inkscape:pageopacity="0.0"
     inkscape:pagecheckerboard="0"
     inkscape:deskcolor="#d1d1d1"
     inkscape:document-units="mm"
     showgrid="false"
     inkscape:zoom="1.5230187"
     inkscape:cx="342.74038"
     inkscape:cy="406.42968"
     inkscape:window-width="2880"
     inkscape:window-height="1514"
     inkscape:window-x="-11"
     inkscape:window-y="-11"
     inkscape:window-maximized="1"
     inkscape:current-layer="layer1" />
  <defs
     id="defs2">
    <rect
       x="-1.0930085"
       y="-1.0930085"
       width="967.31248"
       height="971.68452"
       id="rect126" />
    <rect
       x="1.0930085"
       y="0"
       width="969.4985"
       height="969.4985"
       id="rect120" />
  </defs>
  <g
     inkscape:label="Calque 1"
     inkscape:groupmode="layer"
     id="layer1">
    <text
       xml:space="preserve"
       transform="matrix(0.36469438,0,0,0.36469438,-51.671263,-20.86372)"
       id="text118"
       style="white-space:pre;shape-inside:url(#rect120);display:inline;fill:#000000" />
    <text
       xml:space="preserve"
       transform="matrix(0.36469438,0,0,0.36469438,-51.671263,-20.86372)"
       id="text124"
       style="white-space:pre;shape-inside:url(#rect126);display:inline;fill:#000000" />
    <ellipse
       style="fill:#00ffff;stroke-width:0.364694"
       id="path956"
       cx="130.7934"
       cy="78.39344"
       rx="21.790401"
       ry="21.431219" />
    <g
       id="g996"
       transform="matrix(1.3783725,0,0,1.3783725,-51.671263,-20.86372)">
      <path
         id="path408"
         style="fill:#00ffff;stroke-width:1.09301"
         inkscape:transform-center-x="-0.69489193"
         inkscape:transform-center-y="41.693513"
         d="m 457.42383,376.9961 v 165.68164 167.23047 h 40.98829 40.98828 V 542.67774 376.9961 Z"
         transform="scale(0.26458333)" />
      <path
         id="text971"
         style="font-style:normal;font-variant:normal;font-weight:normal;font-stretch:normal;font-size:174.513px;font-family:Bahnschrift;-inkscape-font-specification:'Bahnschrift, Normal';font-variant-ligatures:normal;font-variant-caps:normal;font-variant-numeric:normal;font-variant-east-asian:normal;fill:#00ffff;stroke-width:0.264583"
         d="m 88.81215,32.184082 v 38.956279 c 0,9.714092 1.704413,18.036429 5.112866,24.966951 3.408454,6.873718 8.350944,12.128208 14.827004,15.763898 6.53287,3.57887 14.37193,5.36866 23.51794,5.36866 9.20283,0 17.07086,-1.78979 23.60373,-5.36866 6.53287,-3.63569 11.50381,-8.89018 14.91227,-15.763898 3.40845,-6.930522 5.11235,-15.252859 5.11235,-24.966951 V 32.184082 h -17.38292 v 39.552625 c 0,9.032402 -2.30101,16.01977 -6.90242,20.962028 -4.54461,4.942257 -10.9923,7.413505 -19.34301,7.413505 -8.2939,0 -14.71313,-2.471248 -19.25774,-7.413505 -4.5446,-4.942258 -6.81663,-11.929626 -6.81663,-20.962028 V 32.184082 Z" />
    </g>
  </g>
</svg>
